Coordinates
version=1
nRows=32
nColumns=12
inDegrees=yes

Units are S.I. units (second, meters, Newtons, ...)
Angles are in degrees

endheader
time	SC_y	SC_z	SC_x	AC_y	AC_z	AC_x	GH_y	GH_z	GH_yy	EL_x	PS_y
       0.0               -45.6          7.733          58.01          34.73         -8.783         -3.388         -111.6          44.05         -75.41          111.1          34.71
   0.04356               -45.6          7.736          58.01          34.73         -8.781         -3.388         -111.6          44.04         -75.41          111.1          34.71
   0.08713              -45.61           7.74          58.01          34.73         -8.779         -3.388         -111.5          44.04          -75.4          111.1           34.7
    0.1307              -45.61          7.744          58.01          34.74         -8.777         -3.387         -111.5          44.03         -75.39          111.1           34.7
    0.1743              -45.61          7.748           58.0          34.74         -8.774         -3.387         -111.5          44.02         -75.39          111.1           34.7
    0.2178              -45.61          7.753           58.0          34.74         -8.771         -3.387         -111.4          44.02         -75.38          111.0          34.69
    0.2614              -45.61          7.758           58.0          34.74         -8.769         -3.386         -111.4          44.01         -75.37          111.0          34.69
    0.3049              -45.62          7.763          57.99          34.74         -8.766         -3.386         -111.4           44.0         -75.36          111.0          34.68
    0.3485              -45.62          7.768          57.99          34.74         -8.762         -3.385         -111.3          43.99         -75.35          111.0          34.68
    0.3921              -45.62          7.774          57.99          34.75         -8.759         -3.385         -111.3          43.98         -75.34          111.0          34.67
    0.4356              -45.63          7.781          57.98          34.75         -8.755         -3.384         -111.3          43.97         -75.33          111.0          34.67
    0.4792              -45.63          7.788          57.98          34.75         -8.751         -3.384         -111.2          43.96         -75.32          111.0          34.66
    0.5228              -45.63          7.795          57.97          34.75         -8.747         -3.383         -111.2          43.94          -75.3          111.0          34.65
    0.5663              -45.64          7.803          57.97          34.75         -8.742         -3.382         -111.1          43.93         -75.29          111.0          34.64
    0.6099              -45.64          7.812          57.96          34.76         -8.737         -3.382         -111.0          43.92         -75.27          110.9          34.64
    0.6535              -45.65          7.821          57.96          34.76         -8.732         -3.381         -111.0           43.9         -75.26          110.9          34.63
     0.697              -45.65          7.831          57.95          34.76         -8.726          -3.38         -110.9          43.88         -75.24          110.9          34.62
    0.7406              -45.66          7.843          57.94          34.77         -8.719         -3.379         -110.8          43.86         -75.22          110.9          34.61
    0.7841              -45.66          7.855          57.94          34.77         -8.712         -3.378         -110.7          43.84          -75.2          110.9           34.6
    0.8277              -45.67          7.868          57.93          34.78         -8.704         -3.377         -110.7          43.82         -75.18          110.8          34.58
    0.8713              -45.68          7.883          57.92          34.78         -8.696         -3.376         -110.6           43.8         -75.15          110.8          34.57
    0.9148              -45.68          7.899          57.91          34.79         -8.686         -3.375         -110.4          43.77         -75.12          110.8          34.56
    0.9584              -45.69          7.917           57.9          34.79         -8.676         -3.373         -110.3          43.74         -75.09          110.8          34.54
     1.002               -45.7          7.936          57.88           34.8         -8.665         -3.372         -110.2           43.7         -75.06          110.7          34.52
     1.046              -45.71          7.958          57.87          34.81         -8.652          -3.37         -110.0          43.67         -75.02          110.7           34.5
     1.089              -45.73          7.983          57.85          34.81         -8.638         -3.368         -109.9          43.63         -74.98          110.6          34.48
     1.133              -45.74           8.01          57.84          34.82         -8.622         -3.366         -109.7          43.58         -74.93          110.6          34.45
     1.176              -45.76          8.041          57.82          34.83         -8.604         -3.363         -109.5          43.53         -74.87          110.5          34.42
      1.22              -45.77          8.076          57.79          34.84         -8.583         -3.361         -109.2          43.47         -74.81          110.5          34.39
     1.263              -45.79          8.115          57.77          34.86          -8.56         -3.357         -108.9           43.4         -74.74          110.4          34.36
     1.307              -45.82           8.16          57.74          34.87         -8.534         -3.354         -108.6          43.33         -74.67          110.3          34.31
      1.35              -45.84          8.212          57.71          34.89         -8.504          -3.35         -108.3          43.24         -74.58          110.2          34.27
